<?xml version="1.0" encoding="utf-8"?>
<!-- Generator: Adobe Illustrator 25.3.1, SVG Export Plug-In . SVG Version: 6.00 Build 0)  -->
<svg version="1.1" id="Calque_1" xmlns="http://www.w3.org/2000/svg" xmlns:xlink="http://www.w3.org/1999/xlink" x="0px" y="0px"
	 viewBox="0 0 2845.9 730.8" style="enable-background:new 0 0 2845.9 730.8;" xml:space="preserve">
<style type="text/css">
	.st0{fill:#0066AA;}
	.st1{fill:#009E8E;}
	.st2{fill:none;}
</style>
<path class="st0" d="M1032.7,249.2c-5.2,8.5-10.8,18.5-16.7,30s-11.9,23.6-17.9,36.2c-6,12.6-11.7,25.2-17.3,37.8
	s-10.7,24.1-15.3,34.5c-4.6-10.4-9.7-21.9-15.3-34.5c-5.6-12.6-11.4-25.2-17.3-37.8c-6-12.6-11.9-24.7-17.9-36.2
	c-6-11.6-11.5-21.6-16.7-30h-24.6c-1.7,14.4-3.3,29.7-4.8,45.9c-1.4,16.2-2.8,32.8-4,49.8c-1.2,17-2.4,34.4-3.3,52
	c-1,17.6-1.8,35.1-2.6,52.4h27.4c0.9-26.9,2.1-53.6,3.5-80.1s3.1-51.1,5.2-73.8c1.9,3.3,4.5,8,7.7,14.1c3.2,6.2,6.6,13.1,10.2,21
	c3.7,7.8,7.5,16.1,11.7,24.8s8,17.3,11.7,25.5c3.7,8.3,7.1,16,10.2,23.1s5.7,13,7.7,17.6h22.5c1.9-4.6,4.5-10.5,7.7-17.6
	s6.6-14.8,10.2-23.1s7.6-16.8,11.7-25.5s8-17,11.7-24.8s7.1-14.8,10.2-21c3.2-6.2,5.7-10.9,7.7-14.1c2.1,22.7,3.8,47.3,5.2,73.8
	c1.3,26.4,2.5,53.2,3.5,80.1h27.4c-3.3-68.9-8.2-135.6-14.7-200L1032.7,249.2z"/>
<path class="st0" d="M1197.3,311.3c-4.9-5.4-11-9.4-17.9-11.8c-7.4-2.8-16.5-4.2-27.3-4.2c-8.8-0.1-17.6,0.7-26.3,2.2
	c-8.1,1.5-13.9,2.9-17.3,4.5l3.2,22.2c4.8-1.8,9.8-3.1,14.9-3.9c7.7-1.3,15.4-2,23.2-1.9c6.9,0,12.6,1,16.9,3
	c4,1.8,7.6,4.6,10.2,8.1c2.5,3.4,4.3,7.4,5.2,11.5c1,4.3,1.4,8.7,1.4,13.1v7.5c-0.8-0.2-2.1-0.5-4-0.9s-4.2-0.8-6.8-1.3
	s-5.3-0.9-8.2-1.2s-5.7-0.4-8.4-0.4c-8.2,0-16.3,0.8-24.2,2.6c-7.2,1.5-14,4.2-20.2,8.1c-5.7,3.6-10.4,8.5-13.7,14.4
	c-3.4,6-5,13.1-5,21.4c0,8.7,1.4,16.1,4.3,22.2c2.7,5.9,6.9,11,12.1,14.9c5.6,3.9,11.8,6.7,18.5,8.2c7.7,1.8,15.5,2.7,23.4,2.6
	c6,0,12-0.2,18-0.7s11.6-1,16.8-1.6c5.2-0.6,9.9-1.2,14-1.9l9.7-1.6v-93.8c0.1-7.8-0.9-15.7-2.9-23.2
	C1205.1,322.8,1201.8,316.6,1197.3,311.3z M1183.6,427.8c-4,0.9-8.1,1.4-12.3,1.6c-4.9,0.3-10.5,0.4-16.9,0.4
	c-10.6,0-19-1.9-25.1-5.6c-6.2-3.8-9.2-10.4-9.3-20.1c0-5.2,1.2-9.4,3.8-12.6c2.5-3.2,5.7-5.7,9.4-7.5c3.9-1.9,8.1-3.1,12.4-3.6
	c4.3-0.6,8.6-0.8,12.8-0.9c5.3-0.1,10.5,0.3,15.7,1c3.2,0.4,6.4,1.2,9.4,2.5V427.8z"/>
<path class="st0" d="M1326.3,426c-4.9,1.8-11.4,2.7-19.5,2.7c-4.1,0.1-8.2-0.5-12.1-1.7c-3.4-1.1-6.4-3.2-8.7-5.9
	c-2.3-2.8-4-6.6-5.2-11.5c-1.3-6.1-1.9-12.4-1.7-18.6v-69.3h56.9v-22.5h-56.9v-46.5l-26.9,4.6v133.9c-0.1,8.9,0.7,17.7,2.5,26.4
	c1.3,7,4.3,13.5,8.5,19.2c4.2,5.3,9.7,9.3,16,11.7c6.7,2.6,15.1,3.9,25.3,3.9c7.8,0.1,15.6-0.9,23.1-3c4.8-1.3,9.6-3,14.1-5
	l-5.2-22.2C1334.6,422.9,1331.2,424.1,1326.3,426z"/>
<path class="st0" d="M1478.1,315.2c-5-6.3-11.5-11.1-18.9-14.2c-7.9-3.4-17.8-5.1-29.7-5c-5.7,0-11.3,0.5-16.9,1.6
	c-5.5,1-10.8,2.5-16,4.5v-76.8l-26.9,4.6v219.4h26.9V324.5c1.6-0.6,3.1-1,4.8-1.4c2.2-0.6,4.7-1.1,7.5-1.6c2.8-0.5,5.7-0.9,8.8-1.3
	c3-0.4,6-0.6,8.9-0.6c7.1,0,13.1,0.9,17.9,2.7c4.6,1.7,8.7,4.8,11.5,8.8c2.9,4,5,9.3,6.2,15.9c1.4,7.8,2,15.7,1.9,23.7v78.5h26.9
	v-84.3c0.1-9.4-0.9-18.8-2.9-28C1486.4,329,1483,321.6,1478.1,315.2z"/>
<path class="st0" d="M1881.3,315.3c-4.3-6.3-10.2-11.2-17.1-14.3c-7.3-3.4-16.8-5.1-28.3-5c-5.6,0-11.3,0.6-16.7,1.9
	c-4.8,1.1-9.5,2.6-14.1,4.3c-3.7,1.4-7.3,3.1-10.7,5c-2.9,1.7-5,3.1-6.3,4c-4.5-5.1-10.1-9-16.4-11.4c-6.5-2.6-14.6-3.9-24.2-3.9
	c-11.7-0.1-23.5,0.7-35.1,2.6c-10.1,1.7-18.3,3.4-24.4,4.9v145.8h26.9V322.5c0.7-0.2,2.3-0.5,4.6-0.9c2.3-0.4,4.8-0.7,7.6-1
	c2.8-0.3,5.7-0.5,8.8-0.7s6-0.3,8.7-0.3c6.3,0,11.6,1,15.7,3c4.2,2,7.6,5.3,9.8,9.4c2.6,4.9,4.3,10.3,5,15.9
	c1,7.6,1.5,15.2,1.4,22.8v78.5h26.9v-84.3c0-6.3-0.4-12.5-1.2-18.8c-0.7-5.6-1.9-11.1-3.5-16.5c2.1-1.9,6.1-4.1,12-6.5
	c5.9-2.4,13.3-3.6,22.4-3.6c6.5,0,11.9,1,16,3c4.2,2,7.6,5.3,9.8,9.4c2.6,4.9,4.3,10.3,4.9,15.9c0.9,7.6,1.4,15.2,1.3,22.8v78.5
	h26.9v-84.3c0.1-9.3-0.7-18.6-2.2-27.7C1888.4,329.4,1885.6,321.9,1881.3,315.3z"/>
<path class="st0" d="M2025.7,311.4c-4.9-5.4-11-9.4-17.9-11.8c-7.4-2.8-16.5-4.2-27.3-4.2c-8.8-0.1-17.6,0.7-26.3,2.2
	c-8.1,1.5-13.9,2.9-17.3,4.5l3.2,22.2c4.8-1.8,9.8-3.1,14.9-3.9c7.7-1.3,15.5-2,23.2-1.9c6.9,0,12.5,1,16.9,3
	c4,1.8,7.6,4.6,10.2,8.1c2.5,3.4,4.3,7.4,5.2,11.5c1,4.3,1.4,8.7,1.4,13.1v7.5c-0.8-0.2-2.1-0.5-4-0.9s-4.2-0.8-6.8-1.3
	s-5.3-0.9-8.2-1.2s-5.7-0.4-8.4-0.4c-8.2,0-16.3,0.8-24.2,2.6c-7.2,1.5-14,4.2-20.2,8.1c-5.7,3.6-10.4,8.5-13.7,14.4
	c-3.4,6-5.1,13.1-5.1,21.4c0,8.7,1.4,16.1,4.3,22.2c2.7,5.9,6.9,11,12.1,14.9c5.6,3.9,11.8,6.7,18.5,8.2c7.7,1.8,15.5,2.7,23.4,2.6
	c6,0,12-0.2,18-0.7s11.7-1,16.9-1.6c5.2-0.6,9.9-1.2,14-1.9l9.7-1.6v-93.8c0.1-7.8-0.9-15.7-2.9-23.2
	C2033.6,322.8,2030.3,316.6,2025.7,311.4z M2012,427.9c-4,0.9-8.1,1.4-12.3,1.6c-4.9,0.3-10.5,0.4-16.9,0.4
	c-10.6,0-18.9-1.9-25.1-5.6c-6.2-3.8-9.3-10.4-9.3-20.1c0-5.2,1.2-9.4,3.8-12.6c2.5-3.2,5.7-5.8,9.4-7.5c3.9-1.9,8.1-3.1,12.4-3.6
	c9.5-1.2,19.1-1.1,28.6,0.2c3.2,0.4,6.4,1.2,9.4,2.5L2012,427.9z"/>
<path class="st0" d="M2149.5,426c-4.9,1.8-11.4,2.7-19.5,2.8c-4.1,0.1-8.2-0.5-12.1-1.7c-3.4-1.1-6.4-3.2-8.7-5.9
	c-2.3-2.8-4-6.6-5.2-11.5c-1.3-6.1-1.9-12.4-1.7-18.6v-69.3h56.9v-22.5h-56.9v-46.5l-26.9,4.6v133.9c-0.1,8.9,0.7,17.7,2.4,26.4
	c1.4,7,4.3,13.5,8.5,19.2c4.2,5.3,9.7,9.3,16,11.7c6.7,2.6,15.1,3.9,25.2,3.9c7.8,0.1,15.6-0.9,23.1-3c4.8-1.3,9.6-3,14.1-5
	l-5.2-22.2C2157.9,422.9,2154.4,424.2,2149.5,426z"/>
<rect x="2193" y="299.1" class="st0" width="26.9" height="150.1"/>
<path class="st0" d="M2206.2,286c4.6,0.1,9-1.6,12.3-4.8c3.4-3.2,5.1-7.5,5.1-12.8c0-5.4-1.7-9.7-5.1-12.8c-7-6.3-17.6-6.3-24.6,0
	c-3.4,3.2-5.1,7.5-5.1,12.8s1.7,9.7,5.1,12.8C2197.3,284.3,2201.7,286,2206.2,286z"/>
<path class="st0" d="M2521.6,425.8c-1.5,0.5-3.1,0.8-4.8,1c-2.2,0.3-4.7,0.6-7.4,0.9s-5.6,0.5-8.7,0.7s-6.1,0.3-8.9,0.3
	c-13.7,0-23.4-3.9-29.1-11.8c-5.8-7.9-8.6-21-8.6-39.3v-78.5h-26.9v84.3c-0.1,9.4,1,18.7,3.2,27.9c1.9,7.9,5.4,15.3,10.4,21.8
	c5,6.3,11.6,11.2,19.1,14.3c7.9,3.4,17.6,5,29.1,5c11.7,0.1,23.5-0.7,35.1-2.6c10.1-1.7,18.2-3.4,24.4-4.9V299.1h-26.9L2521.6,425.8
	z"/>
<path class="st0" d="M2652.3,295.3c-8.7,0-17.3,1.7-25.4,4.9c-8.3,3.3-15.8,8.3-22,14.7c-6.7,7.1-11.9,15.5-15.3,24.7
	c-3.9,9.9-5.8,21.5-5.8,34.8c-0.1,10.6,1.4,21.2,4.5,31.3c2.8,9.1,7.5,17.5,13.8,24.7c6.5,7.2,14.6,12.7,23.5,16.3
	c9.5,3.9,20.8,5.9,33.9,5.9c9.4,0.1,18.7-0.9,27.9-2.9c8.2-1.9,13.9-3.7,17.2-5.5l-3.8-22.5c-4.7,2-9.6,3.6-14.6,4.8
	c-6.5,1.6-14.4,2.5-23.8,2.5c-16.7,0-29.1-4-36.9-12.1s-12.4-19.9-13.6-35.5h102.8c0.2-1.7,0.3-3.4,0.3-5v-4.5
	c0-25.8-5.4-45-16.2-57.6C2688,301.7,2672.5,295.4,2652.3,295.3z M2612.5,359.7c0.6-5.2,1.8-10.4,3.6-15.3c1.7-4.9,4.3-9.4,7.6-13.3
	c3.3-3.9,7.4-7.1,12-9.4c5.1-2.5,10.7-3.7,16.3-3.6c11,0,19.6,3.9,25.8,11.7c6.2,7.8,9.3,17.7,9.1,29.9L2612.5,359.7z"/>
<path class="st0" d="M2842.7,392.5c-2-4.8-5.2-9.1-9.1-12.5c-4.3-3.7-9.1-6.8-14.3-9.1c-5.6-2.6-11.9-5.2-19-7.9
	c-5.4-1.9-10-3.8-13.9-5.5c-3.4-1.5-6.7-3.4-9.7-5.6c-2.4-1.8-4.4-4.1-5.8-6.8c-1.3-2.7-1.9-5.7-1.9-8.6c-0.3-5.9,3-11.4,8.4-14
	c6.1-3.1,12.8-4.6,19.6-4.5c7.5-0.1,14.9,0.7,22.2,2.5c4.7,1.1,9.2,2.7,13.6,4.8l4.9-23.1c-1.5-0.6-3.7-1.2-6.5-2
	c-2.8-0.8-6-1.5-9.7-2.2c-3.6-0.7-7.6-1.2-11.8-1.7c-4.2-0.5-8.5-0.7-12.7-0.7c-16.9,0-30.3,3.9-40.1,11.7s-14.7,18.3-14.7,31.6
	c0,6.7,1.2,12.4,3.5,17c2.2,4.5,5.4,8.6,9.2,11.8c4.2,3.5,8.8,6.3,13.7,8.5c5.3,2.4,10.9,4.8,16.6,7.1c11.9,4.8,20.5,9.1,25.7,13
	c5,3.6,8,9.4,7.8,15.6c0,6.4-2.6,11-7.9,13.8c-5.3,2.9-13.4,4.3-24.4,4.3c-11.2,0-20.1-1.2-26.9-3.5c-6.7-2.3-11.6-4-14.7-5.2
	l-4.9,23.1c2.7,1.2,7.8,2.8,15.3,5c7.5,2.2,17.9,3.3,31.2,3.3c19.1,0,33.7-3.6,44-10.7c10.3-7.1,15.4-17.6,15.4-31.5
	C2845.9,403.4,2844.9,397.4,2842.7,392.5z"/>
<path class="st0" d="M2322.3,578.4c0,16.9-2.5,31.8-7.4,44.7s-11.6,23.7-20.1,32.3c-8.3,8.6-18.3,15.2-29.5,19.5
	c-22.9,8.8-48.3,8.8-71.2,0c-11.1-4.3-21.2-11-29.5-19.5c-8.4-8.7-15.1-19.4-20.1-32.3s-7.4-27.8-7.4-44.7c0-16.9,2.5-31.8,7.4-44.6
	s11.6-23.5,20.1-32.2c8.3-8.5,18.4-15.2,29.5-19.5c22.9-8.7,48.3-8.7,71.2,0c11.1,4.3,21.2,11,29.5,19.5
	c8.5,8.7,15.2,19.4,20.1,32.2S2322.3,561.5,2322.3,578.4z M2301.8,578.4c0-13.3-1.7-25.2-5.1-35.8c-3-9.8-8-19-14.5-26.9
	c-6.1-7.3-13.9-13.1-22.6-16.9c-19.1-7.8-40.5-7.8-59.5,0c-8.8,3.8-16.5,9.6-22.6,16.9c-6.6,7.9-11.5,17.1-14.5,26.9
	c-3.4,10.5-5.1,22.4-5.1,35.8s1.7,25.2,5.1,35.7c3,9.8,8,19,14.5,26.9c6.2,7.3,13.9,13.2,22.6,17.1c19,8,40.5,8,59.5,0
	c8.7-3.9,16.5-9.8,22.6-17.1c6.6-7.9,11.5-17.1,14.5-26.9C2300.1,603.6,2301.8,591.7,2301.8,578.4z"/>
<path class="st0" d="M2414.3,527.1c5.8,0,11.5,0.4,17.2,1.4c5.4,1,9.2,1.9,11.2,2.8l-3.7,16c-1.5-0.8-4.6-1.6-9.2-2.4
	c-6.1-1-12.2-1.4-18.4-1.3c-8,0-14.4,0.6-19.2,1.7c-3.3,0.6-6.5,1.6-9.5,2.8v129h-18.5V536.8c6.4-2.6,12.9-4.8,19.6-6.4
	C2392.2,528.2,2402.3,527.1,2414.3,527.1z"/>
<path class="st0" d="M2500.6,664.2c10.6,0,19.4-1.8,26.4-5.3s10.4-9.5,10.4-17.8c0.1-3.5-0.5-7-1.9-10.2c-1.4-3-3.5-5.7-6.1-7.7
	c-3.5-2.6-7.2-4.9-11.2-6.6c-4.6-2.1-10.4-4.6-17.2-7.4c-5.5-2.3-10.7-4.6-15.7-7c-4.7-2.2-9.1-5-13.1-8.3
	c-3.8-3.1-6.9-6.9-9.1-11.2c-2.3-4.4-3.4-9.7-3.4-16c0-11.9,4.5-21.6,13.5-29c9-7.4,21.4-11.1,37.2-11.1c10,0,18.4,0.9,24.9,2.6
	s11.2,3.2,13.8,4.6l-4.3,16.5c-3.7-1.7-7.6-3.3-11.5-4.6c-5.4-1.9-13.4-2.8-23.8-2.8c-4,0-7.9,0.4-11.8,1.3c-3.5,0.8-6.8,2.1-9.9,4
	c-2.8,1.7-5.1,4.1-6.8,6.9c-1.8,3.1-2.7,6.6-2.6,10.1c-0.1,3.6,0.7,7.1,2.3,10.3c1.6,3,3.9,5.6,6.7,7.6c3.4,2.4,7,4.5,10.8,6.1
	c4.3,1.9,9.2,4,14.7,6.2c5.7,2.3,11.1,4.6,16.4,7c5,2.2,9.6,5.1,13.8,8.5c4,3.3,7.3,7.4,9.7,12c2.4,4.6,3.7,10.5,3.7,17.5
	c0,13.3-5,23.4-15,30.2c-10,6.8-23.6,10.2-40.9,10.2c-12.9,0-22.8-1.1-29.6-3.3c-4.7-1.4-9.2-3.1-13.7-5l4.8-16.8
	c1.2,0.7,2.4,1.3,3.7,1.8c2.5,1.1,5.1,2,7.7,2.8c3.8,1.2,7.6,2.1,11.5,2.7C2490.2,663.8,2495.4,664.2,2500.6,664.2z"/>
<path class="st0" d="M2636.8,526.5c9.7,0,17.9,1.4,24.6,4.1c6.3,2.5,11.9,6.4,16.4,11.4c4.3,5,7.4,10.9,9.1,17.2
	c2,7,2.9,14.3,2.9,21.7v92.9c-1.9,0.5-4.7,1.2-8.3,1.8s-7.8,1.4-12.5,2.2s-10,1.4-15.8,1.8s-11.7,0.7-17.8,0.7
	c-7.2,0.1-14.5-0.8-21.5-2.5c-6.2-1.5-12-4.3-17.1-8.1c-4.9-3.8-8.8-8.7-11.4-14.2c-2.8-5.8-4.1-12.9-4.1-21.2
	c0-8,1.5-14.8,4.6-20.5c3-5.7,7.4-10.5,12.8-14.1c6-3.9,12.7-6.7,19.7-8.1c8.1-1.8,16.4-2.6,24.8-2.6c2.7,0,5.5,0.2,8.4,0.4
	s5.8,0.7,8.5,1.2s5.1,1,7.1,1.4c1.4,0.3,2.8,0.7,4.1,1.3v-9.1c0-5-0.4-10-1.1-15c-0.7-4.7-2.4-9.2-5-13.1c-2.7-4-6.5-7.3-10.8-9.4
	c-4.7-2.4-10.8-3.5-18.4-3.5c-10.8,0-18.9,0.8-24.2,2.3s-9.2,2.8-11.7,3.7l-2.6-16.2c3.2-1.5,8.2-2.9,15-4.3
	C2620.5,527.1,2628.6,526.4,2636.8,526.5z M2638.5,663.8c7.2,0,13.5-0.2,18.9-0.7c4.6-0.4,9.3-1,13.8-1.9v-51.8
	c-3.2-1.3-6.6-2.3-10-3c-4.6-1-10.8-1.5-18.8-1.5c-4.8,0-9.5,0.3-14.2,1c-4.8,0.6-9.4,2-13.7,4.3c-4.1,2.1-7.6,5.2-10.2,9
	c-2.7,3.8-4,8.8-4,15.1c0,5.5,0.9,10.2,2.7,14c1.7,3.7,4.3,6.8,7.7,9.1c3.6,2.4,7.7,4.1,11.9,5
	C2627.8,663.4,2633.2,663.9,2638.5,663.8L2638.5,663.8z"/>
<path class="st0" d="M2776.9,680.4c-6.2-11.6-12.2-23.7-18-36.2c-5.8-12.5-11.3-25.2-16.3-38c-5.1-12.8-9.7-25.6-13.9-38.5
	c-4.2-12.8-7.8-25.4-10.8-37.7h19.7c2.1,9.1,4.7,18.9,8,29.5c3.3,10.6,6.9,21.4,10.9,32.6c4.1,11.2,8.6,22.7,13.5,34.5
	c4.9,11.8,10.3,23.4,16.2,34.7c4.2-11.7,8-22.8,11.2-33.2c3.3-10.4,6.3-20.8,9.1-31.2c2.8-10.4,5.5-20.9,8.1-31.8
	c2.6-10.8,5.2-22.5,7.9-35.2h18.5c-6.2,27.6-13.1,54.4-20.8,80.4c-7.1,24.3-15.5,48.1-25.3,71.4c-3.2,7.6-6.9,15-11.1,22.1
	c-3.4,5.7-7.7,10.9-12.7,15.2c-4.8,4.1-10.3,7.1-16.3,8.8c-7.1,2-14.5,3-21.9,2.9c-4.4,0-8.8-0.5-13-1.7c-2.5-0.6-4.9-1.5-7.3-2.5
	l3.7-15.4c0.8,0.6,2.9,1.4,6.4,2.4c3.6,1,7.3,1.6,11,1.6c4.9,0.1,9.7-0.5,14.4-1.7c4.2-1.1,8.2-3.1,11.6-5.8c3.7-3,6.8-6.6,9.3-10.7
	C2772.2,691.7,2774.8,686.1,2776.9,680.4z"/>
<path class="st0" d="M1589.6,295.3c-8.7,0-17.3,1.7-25.4,4.9c-8.3,3.3-15.8,8.3-22,14.7c-6.7,7.1-11.9,15.5-15.3,24.7
	c-3.8,9.9-5.8,21.5-5.8,34.8c-0.1,10.6,1.4,21.2,4.5,31.3c2.8,9.1,7.4,17.5,13.7,24.7c6.5,7.2,14.6,12.7,23.6,16.3
	c9.5,3.9,20.8,5.9,33.9,5.9c9.4,0.1,18.7-0.9,27.8-2.9c8.2-1.9,13.9-3.7,17.2-5.5l-3.7-22.5c-4.7,2-9.6,3.6-14.6,4.8
	c-6.4,1.6-14.4,2.5-23.8,2.5c-16.7,0-29.1-4-36.9-12.1c-7.9-8.1-12.4-19.9-13.6-35.5H1652c0.2-1.7,0.3-3.4,0.3-5v-4.5
	c0-25.8-5.4-45-16.2-57.6C1625.3,301.7,1609.8,295.4,1589.6,295.3z M1549.8,359.7c0.6-5.2,1.8-10.4,3.6-15.3
	c1.7-4.9,4.3-9.4,7.6-13.3c3.3-3.9,7.4-7.1,12-9.4c5.1-2.5,10.7-3.7,16.3-3.6c11,0,19.6,3.9,25.8,11.7s9.3,17.7,9.1,29.9
	L1549.8,359.7z"/>
<path class="st0" d="M1624,242.2l-40.8,39.6l-13.6-12.1l37-44.5L1624,242.2z"/>
<path class="st0" d="M2365.8,298.7c-10.9-1.9-22-2.9-33.1-2.7c-10.6-0.2-21.2,1.7-31.2,5.5c-8.9,3.5-17,8.8-23.7,15.6
	c-6.7,7.1-11.9,15.5-15.1,24.7c-3.7,10.5-5.5,21.6-5.3,32.8c-0.1,10.7,1.4,21.3,4.5,31.5c2.7,9.1,7.1,17.5,13.1,24.8
	c5.8,6.9,13,12.4,21.2,16.2c8.4,3.9,17.9,5.8,28.7,5.8c7.8,0.1,15.6-1,23-3.5c6.6-2.3,11.6-4.5,14.9-6.6v61.7
	c4.1-2,8.2-3.8,12.5-5.2c2.6-0.8,5.4-1.6,8.6-2.4c0.2,0,0.4-0.1,0.5-0.1c1.7-0.4,3.4-0.8,5.3-1.1V303.7
	C2383.2,302.2,2375.3,300.5,2365.8,298.7z M2362.8,417.5c-3.3,2.7-8,5.3-14.1,7.8c-6.4,2.6-13.3,3.8-20.2,3.8
	c-7.7,0-14.3-1.4-19.8-4.2c-5.4-2.7-10-6.6-13.4-11.5c-3.6-5.2-6.2-11.1-7.5-17.3c-1.6-7.1-2.4-14.3-2.3-21.5c0-17.5,4.3-31,13-40.4
	c8.7-9.4,20.2-14.1,34.6-14.1c6.3-0.1,12.6,0.2,18.9,0.9c3.7,0.4,7.3,1.1,10.8,2L2362.8,417.5L2362.8,417.5z"/>
<rect x="650.5" class="st1" width="103.6" height="103.6"/>
<path class="st0" d="M647.4,351.7c-26.7,27.8-50.7,59.2-73.1,90.8c-3.9,5.5-11.4,6.8-16.9,2.9c-4.9-3.4-6.5-9.9-3.9-15.2l0.1-0.3
	c9.1-18.7,16.9-38,23.2-57.8c6.2-19.7,11-40,11-59.2c0-9.5-1.3-18.6-4.5-25.7c-3-6.8-8.5-12.1-15.4-14.9c-14-6.5-33-1.5-50.9,6.9
	c-36,17.5-68.8,45.2-99.9,73.4c-31,28.8-60.4,59.4-87.9,91.7l0,0c0,0.1-0.1,0.1-0.1,0.2c-4.6,5.9-13.1,7-19,2.4s-7-13.1-2.4-19
	c0.1-0.1,0.2-0.3,0.3-0.4l0.1-0.2l0.2-0.3l0.2-0.2l0,0c15.4-18.1,29.1-37.5,41-58.1c11.4-20.3,21.4-42.7,21.3-63.1
	c-0.2-10-3.1-18.7-10-24.9c-3.2-3.3-7.6-5.8-12.2-8.1c-4.6-2.1-9.6-3.5-14.6-4.1c-21.6-2.8-45.7,2.4-68.7,8.7
	c-33.6,9.5-66.3,22.9-98.6,37.5l0,0c-14.2,7.3-28.2,14.9-42.1,22.8C82,362,40.1,388.2,0,417c42.7-24.7,85.8-48.5,130-70.1
	c12.3-5.9,24.6-11.6,37-17.2v257.5h483.6V348.5C649.5,349.6,648.5,350.6,647.4,351.7z"/>
<path class="st0" d="M766.6,394.6c-8.7,4.6-17.5,8.8-26.5,12.5c-4.4,1.9-8.9,3.5-13.5,4.8c-4.3,1.2-9.1,1.6-11.6,0.3
	c-2.2-1-3.3-4.4-3.3-8.8c0.1-4.6,0.7-9.1,1.8-13.6c2-9.3,5-18.7,7.8-28.1c5.7-19,12.5-37.8,13.3-59.6c0.2-5.9-0.6-11.9-2.6-17.5
	c-2.4-6.7-7.2-12.1-13.5-15.3c-6.5-3.3-13.8-3.6-19.8-2.5c-5.7,1.1-11.2,2.9-16.4,5.5c-12,6-22.2,13.5-31.7,21.6V103.6H167v195.6
	c29.9-15.4,60.7-29.4,93.1-40.4c24-7.6,49-14.3,76.7-12.1c7.2,0.7,14.3,2.4,21,5.2c6.5,2.9,13.1,6.3,18.8,11.6
	c12,10,18.2,26.5,18.5,41c0.1,12.1-1.8,24.1-5.4,35.7c2.9-2.8,5.7-5.6,8.6-8.3c32.1-29.5,65.5-58.3,107.2-78.2
	c10.5-4.8,21.7-8.9,34.1-11c12.1-2.2,26.9-1.4,39.2,4.1c12.7,5.2,24.2,16.4,29.5,29.1s6.7,25.3,6.4,37.2
	c-0.5,18.6-4.3,35.9-9.2,52.6c8.8-9.8,17.8-19.4,27.3-28.7c5.7-5.4,34.7-33.7,57.7-48.6c7.3-4.8,15.8-6.4,20.5-4.1
	c5.1,1.9,7.8,8.8,8,17.7c0.1,17.8-5.3,37.2-9.7,56.3c-2.3,9.6-4.7,19.3-6.2,29.5c-0.9,5.2-1.2,10.5-1,15.8c0.1,3,0.8,6,1.9,8.8
	c1.4,3.3,4,6,7.3,7.5c6.8,2.5,12.4,0.7,17.4-0.8c4.8-1.7,9.5-3.7,14-6c9-4.4,17.7-9.3,26.2-14.4c16.9-10.4,33.1-21.9,48.5-34.3
	C801.2,375.5,784.2,385.5,766.6,394.6z"/>
<rect x="-197" y="-169.6" class="st2" width="3240" height="1071.5"/>
</svg>
